HIERARCHY
ROOT hip
{
	OFFSET 0.000000 0.000000 0.000000 
	CHANNELS 6 Xposition Yposition Zposition Zrotation Yrotation Xrotation
	JOINT abdomen
	{
		OFFSET 0.000000 20.688101 -0.731520 
		CHANNELS 3 Zrotation Xrotation Yrotation
		JOINT chest
		{
			OFFSET 0.000000 11.704300 -0.487680 
			CHANNELS 3 Zrotation Xrotation Yrotation
			JOINT neck
			{
				OFFSET 0.000000 22.189400 -2.194560 
				CHANNELS 3 Zrotation Xrotation Yrotation
				JOINT head
				{
					OFFSET -0.243840 7.071330 1.219200 
					CHANNELS 3 Zrotation Xrotation Yrotation
					End Site
					{
						OFFSET 1.000000 0.000000 0.000000 
					}
				}
			}
			JOINT rCollar
			{
				OFFSET -2.682240 19.263399 -4.876800 
				CHANNELS 3 Zrotation Xrotation Yrotation
				JOINT rShldr
				{
					OFFSET -8.778240 -1.950730 1.463040 
					CHANNELS 3 Zrotation Xrotation Yrotation
					JOINT rForeArm
					{
						OFFSET -28.174200 -1.711500 0.487680 
						CHANNELS 3 Zrotation Xrotation Yrotation
						JOINT rHand
						{
							OFFSET -22.587900 0.773209 7.071360 
							CHANNELS 3 Zrotation Xrotation Yrotation
							End Site
							{
								OFFSET -1.782710 -1.182140 1.430490 
							}
						}
					}
				}
			}
			JOINT lCollar
			{
				OFFSET 2.682240 19.263399 -4.876800 
				CHANNELS 3 Zrotation Xrotation Yrotation
				JOINT lShldr
				{
					OFFSET 8.778240 -1.950730 1.463040 
					CHANNELS 3 Zrotation Xrotation Yrotation
					JOINT lForeArm
					{
						OFFSET 28.174200 -1.711500 0.487680 
						CHANNELS 3 Zrotation Xrotation Yrotation
						JOINT lHand
						{
							OFFSET 22.587900 0.773209 7.071360 
							CHANNELS 3 Zrotation Xrotation Yrotation
							End Site
							{
								OFFSET 1.782710 -1.182140 1.430490 
							}
						}
					}
				}
			}
		}
	}
	JOINT rThigh
	{
		OFFSET -8.778240 4.350840 1.219200 
		CHANNELS 3 Zrotation Xrotation Yrotation
		JOINT rShin
		{
			OFFSET 0.000000 -38.526772 -1.463040 
			CHANNELS 3 Zrotation Xrotation Yrotation
			JOINT rFoot
			{
				OFFSET 0.731520 -45.110401 -5.120640 
				CHANNELS 3 Zrotation Xrotation Yrotation
				End Site
				{
					OFFSET -1.122100 -3.699640 12.103000 
				}
			}
		}
	}
	JOINT lThigh
	{
		OFFSET 8.778240 4.350840 1.219200 
		CHANNELS 3 Zrotation Xrotation Yrotation
		JOINT lShin
		{
			OFFSET 0.000000 -38.526772 -1.463040 
			CHANNELS 3 Zrotation Xrotation Yrotation
			JOINT lFoot
			{
				OFFSET -0.731520 -45.110401 -5.120640 
				CHANNELS 3 Zrotation Xrotation Yrotation
				End Site
				{
					OFFSET 1.122100 -3.699640 12.103000 
				}
			}
		}
	}
}
MOTION
Frames: 6
Frame Time: 0.008333
51.1883010000000	85.1527020000000	-184.119995000000	-0.429167290418127	0	0	0.451123000000000	-0.00265100000000000	0.0129080000000000	0.124554000000000	-0.00415000000000000	0.0215800000000000	0	0	0	0	0	0	0	0	0	0	0	0	0	0	0	0	0	0	0	0	0	0	0	0	0	0	0	0	0	0	0.825408000000000	-4.24954000000000	-0.0689620000000000	-0.00260300000000000	2.14569000000000	-0.0170860000000000	-0.486065000000000	2.10402000000000	0.0980260000000000	-0.138020000000000	-2.50089000000000	0.0253470000000000	0.00751600000000000	-1.02179000000000	0.0650330000000000	0.479333000000000	3.52276000000000	-0.125864000000000
51.5605010000000	82.7067030000000	-185.436005000000	0.453600524418489	3.39390000000000	8.20940000000000	-0.489514000000000	2.13627000000000	-2.89057000000000	1.12231000000000	-0.362262000000000	-0.782369000000000	-0.781157000000000	-0.456545000000000	0.881082000000000	-0.182942000000000	-9.36050000000000	1.93911000000000	0	0	0	22.1325000000000	11.6499000000000	-9.64683000000000	-16.9415000000000	-14.3882000000000	14.9458000000000	0.0221940000000000	-3.30609000000000	-0.461851000000000	0	0	0	-17.5254000000000	16.9944990000000	-3.56720000000000	26.2400000000000	-23.9282000000000	-14.0253000000000	-0.172803000000000	-9.25010000000000	1.23981000000000	0.912695000000000	-14.8807000000000	1.46648000000000	-0.0663370000000000	13.2526000000000	0.0689730000000000	-1.01570000000000	-3.04118000000000	-3.55408000000000	-1.74182000000000	-0.318302000000000	-1.40253000000000	0.0588600000000000	7.17930000000000	0.0341590000000000	0.245229000000000	12.1186000000000	1.98391000000000
51.6082990000000	83.1287990000000	-183.423996000000	1.29048337090691	3.36280000000000	7.90250000000000	-1.27415000000000	4.37649000000000	-5.98595000000000	2.16574000000000	-0.732856000000000	-1.63765000000000	-1.59846000000000	-0.951505000000000	1.81259000000000	0.377535000000000	-19.2159000000000	4.17939000000000	0	0	0	50.0443990000000	22.8344000000000	-21.2418990000000	-26.2864000000000	-26.1877990000000	33.5812000000000	-0.0127000000000000	-6.80702000000000	-0.956166000000000	0	0	0	-33.2228010000000	34.6842000000000	-8.65815000000000	37.5842020000000	-43.8525010000000	-37.9198000000000	0.103176000000000	-19.0550000000000	2.66847000000000	1.65917000000000	-26.1138000000000	3.33399000000000	-0.171875000000000	25.0233990000000	0.176605000000000	-2.29848000000000	-8.44242000000000	-7.48399000000000	-3.33968000000000	2.10666000000000	-2.94225000000000	0.121257000000000	15.5944000000000	0.00504900000000000	-0.747848000000000	21.2499010000000	4.42919000000000
51.8375020000000	83.1785960000000	-181.567993000000	2.03854363207412	3.48600000000000	7.79890000000000	-1.71982000000000	6.34823000000000	-8.74555000000000	3.08769000000000	-1.07765000000000	-2.39065000000000	-2.30135000000000	-1.36834000000000	2.64392000000000	1.56108000000000	-27.9440000000000	6.50049000000000	0	0	0	79.1651000000000	30.6852000000000	-33.5022010000000	-28.0800000000000	-30.6810000000000	53.0270000000000	-0.0953640000000000	-9.91566000000000	-1.40423000000000	0	0	0	-43.3004000000000	49.9614980000000	-16.0320000000000	31.2407000000000	-48.7960010000000	-70.5326000000000	0.813554000000000	-27.6947990000000	4.14684000000000	3.14805000000000	-36.0343020000000	5.43080000000000	-0.312902000000000	35.4662020000000	0.289219000000000	-4.07179000000000	-13.1065000000000	-11.1368000000000	-4.62286000000000	4.03539000000000	-4.26878000000000	0.189061000000000	23.5814990000000	-0.0309560000000000	-2.35804000000000	29.1509990000000	6.95476000000000
51.8759000000000	83.1377030000000	-179.779999000000	2.66042280955765	3.30800000000000	7.67640000000000	-1.78074000000000	7.71270000000000	-10.6198000000000	3.72656000000000	-1.35872000000000	-2.88761000000000	-2.74978000000000	-1.59118000000000	3.22404000000000	2.73009000000000	-33.9865990000000	8.37390000000000	0	0	0	101.578003000000	34.4767000000000	-42.8532980000000	-27.7814010000000	-29.4375000000000	66.3518980000000	-0.181347000000000	-12.0461000000000	-1.71862000000000	0	0	0	-46.4585990000000	60.1764980000000	-24.5282990000000	27.3300000000000	-43.0630990000000	-89.6101990000000	1.60477000000000	-33.4760020000000	5.33262000000000	4.91655000000000	-42.7757000000000	7.27814000000000	-0.442232000000000	42.5892980000000	0.363586000000000	-5.63771000000000	-16.1509000000000	-13.8073000000000	-5.38690000000000	4.73867000000000	-5.04381000000000	0.259664000000000	30.4986990000000	-0.0837000000000000	-3.86672000000000	34.1310010000000	8.95205000000000
51.6892010000000	83.1433030000000	-178.113007000000	3.12639705909367	3.26950000000000	7.99570000000000	-1.56015000000000	8.21032000000000	-11.2373000000000	3.99490000000000	-1.56772000000000	-3.03153000000000	-2.87068000000000	-1.53835000000000	3.46035000000000	2.99123000000000	-36.3237990000000	9.09701000000000	0	0	0	110.463997000000	35.7477990000000	-45.9494020000000	-27.7943000000000	-28.0618000000000	71.2133030000000	-0.218927000000000	-12.8058000000000	-1.83265000000000	0	0	0	-47.5624010000000	64.6594010000000	-27.9443000000000	27.4143010000000	-39.2956010000000	-94.3403020000000	1.92649000000000	-35.2214010000000	5.74211000000000	6.00020000000000	-45.2183000000000	8.03618000000000	-0.487444000000000	44.9518010000000	0.331944000000000	-6.27285000000000	-17.0711990000000	-14.9632000000000	-5.56793000000000	3.73476000000000	-5.03822000000000	0.331964000000000	35.8591000000000	-0.158972000000000	-4.26865000000000	35.1160010000000	9.53626000000000
